<?xml version="1.0" encoding="utf-8"?>
<!-- Generator: Adobe Illustrator 16.0.0, SVG Export Plug-In . SVG Version: 6.00 Build 0)  -->
<!DOCTYPE svg PUBLIC "-//W3C//DTD SVG 1.1//EN" "http://www.w3.org/Graphics/SVG/1.1/DTD/svg11.dtd">
<svg version="1.1" id="Layer_1" xmlns="http://www.w3.org/2000/svg" xmlns:xlink="http://www.w3.org/1999/xlink" x="0px" y="0px"
	 width="128px" height="128px" viewBox="0 0 128 128" enable-background="new 0 0 128 128" xml:space="preserve">
<rect width="128" height="128"/>
<g>
	<path fill="#FED006" d="M15.92,44.716c0-4.856,3.654-8.133,8.393-8.133c3.442,0,5.446,1.863,6.554,3.843L27.99,41.84
		c-0.66-1.273-2.075-2.287-3.678-2.287c-2.876,0-4.951,2.192-4.951,5.163c0,2.971,2.074,5.163,4.951,5.163
		c1.603,0,3.018-1.014,3.678-2.287l2.876,1.391c-1.108,1.957-3.112,3.866-6.554,3.866C19.574,52.849,15.92,49.549,15.92,44.716z"/>
	<path fill="#FED006" d="M43.643,52.566v-6.625h-7.426v6.625H32.87V36.842h3.347v6.177h7.426v-6.177h3.371v15.725H43.643z"/>
	<path fill="#FED006" d="M60.97,52.566l-0.99-2.664h-6.742l-0.99,2.664h-3.795l6.059-15.725h4.196l6.059,15.725H60.97z
		 M56.609,40.189l-2.452,6.766h4.903L56.609,40.189z"/>
	<path fill="#FED006" d="M77.071,52.566l-7.497-10.255v10.255h-3.348V36.842h3.442l7.284,9.878v-9.878h3.348v15.725H77.071z"/>
	<path fill="#FED006" d="M82.658,44.716c0-4.974,3.771-8.133,8.393-8.133c3.253,0,5.304,1.65,6.483,3.513l-2.759,1.509
		c-0.73-1.108-2.074-2.051-3.725-2.051c-2.876,0-4.951,2.192-4.951,5.163c0,2.971,2.075,5.163,4.951,5.163
		c1.391,0,2.688-0.613,3.324-1.202v-1.886h-4.149v-2.923h7.497v6.035c-1.604,1.792-3.843,2.947-6.672,2.947
		C86.43,52.849,82.658,49.667,82.658,44.716z"/>
	<path fill="#FED006" d="M100.385,52.566V36.842h11.128v2.947h-7.78v3.3h7.615v2.947h-7.615v3.583h7.78v2.947H100.385z"/>
</g>
<g>
	<path fill="#FED006" d="M23.601,86.987V66.088h-7.519v-4.819h20.514v4.819h-7.48v20.899H23.601z"/>
	<path fill="#FED006" d="M40.099,86.987V61.269h5.476v25.719H40.099z"/>
	<path fill="#FED006" d="M56.6,86.987V66.088h-7.519v-4.819h20.513v4.819h-7.48v20.899H56.6z"/>
	<path fill="#FED006" d="M72.867,86.987V61.269h5.514v20.898h10.873v4.82H72.867z"/>
	<path fill="#FED006" d="M92.953,86.987V61.269h18.199v4.819H98.428v5.398h12.455v4.82H98.428v5.86h12.725v4.82H92.953z"/>
</g>
</svg>
